<svg id="Camada_1" data-name="Camada 1" xmlns="http://www.w3.org/2000/svg" viewBox="0 0 900 1080"><defs><style>.cls-1{fill:#319860;}.cls-2{fill:none;stroke:#55cc7c;stroke-miterlimit:10;stroke-width:3px;}</style></defs><rect class="cls-1" y="-0.11" width="900" height="1080"/><path class="cls-2" d="M-54.21,975.58s244-140,440,26,546-12,546-12"/><path class="cls-2" d="M-54.21,81.94s244-140,440,26,546-12,546-12"/><path class="cls-2" d="M-43.31,833.16s244-140,440,26,546-12,546-12"/><path class="cls-2" d="M-43.31,678.16s244-140,440,26,546-12,546-12"/><path class="cls-2" d="M-43.31,524.16s244-140,440,26,546-12,546-12"/><path class="cls-2" d="M-43.31,391.16s244-140,440,26,546-12,546-12"/><path class="cls-2" d="M-43.31,233.16s244-140,440,26,546-12,546-12"/></svg>