<svg id="Camada_1" data-name="Camada 1" xmlns="http://www.w3.org/2000/svg" viewBox="0 0 1920 1080"><defs><style>.cls-1{fill:#319860;}.cls-2{fill:none;stroke:#55cc7c;stroke-miterlimit:10;stroke-width:3px;}</style></defs><rect class="cls-1" width="1920" height="1080"/><path class="cls-2" d="M-.21,979.72s254-145.74,458,27.07,568.39-12.49,568.39-12.49"/><path class="cls-2" d="M-.21,49.44s254-145.74,458,27.07S1026.22,64,1026.22,64"/><path class="cls-2" d="M11.14,831.46s254-145.74,458,27.07S1037.56,846,1037.56,846"/><path class="cls-2" d="M11.14,670.11s254-145.74,458,27.06,568.38-12.49,568.38-12.49"/><path class="cls-2" d="M11.14,509.79s254-145.74,458,27.07,568.38-12.49,568.38-12.49"/><path class="cls-2" d="M11.14,371.34s254-145.74,458,27.07,568.38-12.5,568.38-12.5"/><path class="cls-2" d="M11.14,206.86s254-145.74,458,27.07,568.38-12.49,568.38-12.49"/><path class="cls-2" d="M1025.87,995s254-145.74,458,27.07,568.38-12.49,568.38-12.49"/><path class="cls-2" d="M1025.87,64.74s254-145.74,458,27.07,568.38-12.49,568.38-12.49"/><path class="cls-2" d="M1037.21,846.76s254-145.74,458.05,27.07,568.38-12.49,568.38-12.49"/><path class="cls-2" d="M1037.21,685.41s254-145.74,458.05,27.06S2063.64,700,2063.64,700"/><path class="cls-2" d="M1037.21,525.09s254-145.74,458.05,27.07,568.38-12.49,568.38-12.49"/><path class="cls-2" d="M1037.21,386.64s254-145.74,458.05,27.07,568.38-12.49,568.38-12.49"/><path class="cls-2" d="M1037.21,222.16s254-145.74,458.05,27.07,568.38-12.49,568.38-12.49"/></svg>