<svg id="Camada_1" data-name="Camada 1" xmlns="http://www.w3.org/2000/svg" viewBox="0 0 1080 1080"><defs><style>.cls-1{fill:#56ca7d;}.cls-2{fill:#fff;}</style></defs><circle class="cls-1" cx="554.42" cy="537.57" r="466.25"/><path class="cls-2" d="M290.39,836.21a398.58,398.58,0,0,0,528.05-.16c-32.78-114.91-138.56-199-264-199S323.12,721.22,290.39,836.21Z"/><path class="cls-2" d="M711,305.17c55.7-104-15.15-140.29-15.15-140.29-47.84,4-73.37,30.73-87,56.52a179.72,179.72,0,0,0-108.51-.13c-38.82-75.52-98.83-54.78-98.83-54.78-45.93,56.7-18.4,112.5-2.31,136.27A179,179,0,1,0,711,305.17Z"/></svg>