<svg id="Camada_1" data-name="Camada 1" xmlns="http://www.w3.org/2000/svg" viewBox="0 0 908 908"><defs><style>.cls-1{fill:#39b54a;}.cls-2{fill:#fff;}</style></defs><circle class="cls-1" cx="454" cy="454" r="454"/><path class="cls-2" d="M406.46,570.11s30.25-43.17,8-131.31c3.9-17.66,8.81-71.11-39.4-164.44,0,0-22-40.1-46.92,3.63,0,0-21.6,104.16-74.11,52.93,0,0-41.26-27.82-39-33.39,0,0-4.63,9.8,6.82,18.35l-13.61-1.64s29.91,20.61,27,35.66c0,0-81.14,31.9-58.75,59.84,0,0-3,31.24-34.93,53.94,0,0-11.55,7.64,1.76,22.79,0,0-8,18.15,13.93,23.2,0,0,18.19,32.31,54.49,34.14.22,12.74,7.14,208.54,218.53,288.06C430.3,831.87,292.4,751.44,406.46,570.11Z" transform="translate(-68 -37)"/><path class="cls-2" d="M917,411c-23.14-11.83-50.19-16.54-50.19-16.54-32.5-4.93-49.84-25.63-49.84-25.63,1.36-34.51-75.89-55.76-75.89-55.76C633.4,281.51,607,353.25,607,353.25s-80.73,95.06-51.27,185.38c0,0,67.74,224.66-45.82,294.77,0,0,192.12-36.07,234.75-287.3,4.63-27.3,42.85-27.41,42.85-27.41,32.07,15.82,49.25-5.33,49.25-5.33,74,12,92.82-50.92,92.82-50.92,9.43-8.72,11.81-23.19,11.81-23.19C958.53,418.1,917,411,917,411Z" transform="translate(-68 -37)"/></svg>